name Walk2.mot
datacolumns 19
datarows 17
range 2.05800000 2.07400000
endheader

                time	   L_ground_force_vx	   L_ground_force_vy	   L_ground_force_vz	   L_ground_force_px	   L_ground_force_py	   L_ground_force_pz	   R_ground_force_vx	   R_ground_force_vy	   R_ground_force_vz	   R_ground_force_px	   R_ground_force_py	   R_ground_force_pz	   L_ground_torque_x	   L_ground_torque_y	   L_ground_torque_z	   R_ground_torque_x	   R_ground_torque_y	   R_ground_torque_z	
          2.05800000	        -24.83535083	        540.73633400	        -39.72495562	          0.17659717	          0.00000000	          0.09753137	          0.00000000	          0.00000000	          0.00000000	          0.00000000	          0.00000000	          0.00000000	          0.00000000	          1.53396618	          0.00000000	          0.00000000	          0.00000000	          0.00000000	
          2.05900000	        -24.51820669	        539.57595872	        -39.62667286	          0.17678087	          0.00000000	          0.09762600	          0.00000000	          0.00000000	          0.00000000	          0.00000000	          0.00000000	          0.00000000	          0.00000000	          1.50904651	          0.00000000	          0.00000000	          0.00000000	          0.00000000	
          2.06000000	        -24.22823047	        538.48730229	        -39.51333556	          0.17695875	          0.00000000	          0.09769342	          0.00000000	          0.00000000	          0.00000000	          0.00000000	          0.00000000	          0.00000000	          0.00000000	          1.47896080	          0.00000000	          0.00000000	          0.00000000	          0.00000000	
          2.06100000	        -23.95579444	        537.49754352	        -39.42004150	          0.17722362	          0.00000000	          0.09772592	          0.00000000	          0.00000000	          0.00000000	          0.00000000	          0.00000000	          0.00000000	          0.00000000	          1.44675548	          0.00000000	          0.00000000	          0.00000000	          0.00000000	
          2.06200000	        -23.69477908	        536.59020872	        -39.36145624	          0.17760941	          0.00000000	          0.09772216	          0.00000000	          0.00000000	          0.00000000	          0.00000000	          0.00000000	          0.00000000	          0.00000000	          1.41492118	          0.00000000	          0.00000000	          0.00000000	          0.00000000	
          2.06300000	        -23.44317049	        535.73303316	        -39.33234782	          0.17809467	          0.00000000	          0.09770065	          0.00000000	          0.00000000	          0.00000000	          0.00000000	          0.00000000	          0.00000000	          0.00000000	          1.38700072	          0.00000000	          0.00000000	          0.00000000	          0.00000000	
          2.06400000	        -23.20310972	        534.89790639	        -39.31655219	          0.17862647	          0.00000000	          0.09768811	          0.00000000	          0.00000000	          0.00000000	          0.00000000	          0.00000000	          0.00000000	          0.00000000	          1.36612812	          0.00000000	          0.00000000	          0.00000000	          0.00000000	
          2.06500000	        -22.97663158	        534.05678776	        -39.29536055	          0.17913692	          0.00000000	          0.09770254	          0.00000000	          0.00000000	          0.00000000	          0.00000000	          0.00000000	          0.00000000	          0.00000000	          1.35338937	          0.00000000	          0.00000000	          0.00000000	          0.00000000	
          2.06600000	        -22.75389159	        533.18854174	        -39.25286919	          0.17957771	          0.00000000	          0.09775370	          0.00000000	          0.00000000	          0.00000000	          0.00000000	          0.00000000	          0.00000000	          0.00000000	          1.34740182	          0.00000000	          0.00000000	          0.00000000	          0.00000000	
          2.06700000	        -22.51147121	        532.29057994	        -39.17792012	          0.17994874	          0.00000000	          0.09783781	          0.00000000	          0.00000000	          0.00000000	          0.00000000	          0.00000000	          0.00000000	          0.00000000	          1.34506925	          0.00000000	          0.00000000	          0.00000000	          0.00000000	
          2.06800000	        -22.23224496	        531.37709489	        -39.06800830	          0.18028545	          0.00000000	          0.09793548	          0.00000000	          0.00000000	          0.00000000	          0.00000000	          0.00000000	          0.00000000	          0.00000000	          1.34396423	          0.00000000	          0.00000000	          0.00000000	          0.00000000	
          2.06900000	        -21.91902263	        530.47669731	        -38.93495095	          0.18062607	          0.00000000	          0.09803314	          0.00000000	          0.00000000	          0.00000000	          0.00000000	          0.00000000	          0.00000000	          0.00000000	          1.34483125	          0.00000000	          0.00000000	          0.00000000	          0.00000000	
          2.07000000	        -21.58184549	        529.61234755	        -38.80037759	          0.18099116	          0.00000000	          0.09812679	          0.00000000	          0.00000000	          0.00000000	          0.00000000	          0.00000000	          0.00000000	          0.00000000	          1.35042257	          0.00000000	          0.00000000	          0.00000000	          0.00000000	
          2.07100000	        -21.22469877	        528.77337848	        -38.68026857	          0.18138415	          0.00000000	          0.09820420	          0.00000000	          0.00000000	          0.00000000	          0.00000000	          0.00000000	          0.00000000	          0.00000000	          1.36059821	          0.00000000	          0.00000000	          0.00000000	          0.00000000	
          2.07200000	        -20.85389370	        527.93641561	        -38.57482944	          0.18179825	          0.00000000	          0.09825424	          0.00000000	          0.00000000	          0.00000000	          0.00000000	          0.00000000	          0.00000000	          0.00000000	          1.37088559	          0.00000000	          0.00000000	          0.00000000	          0.00000000	
          2.07300000	        -20.49022350	        527.11605561	        -38.47228790	          0.18222256	          0.00000000	          0.09829050	          0.00000000	          0.00000000	          0.00000000	          0.00000000	          0.00000000	          0.00000000	          0.00000000	          1.37751286	          0.00000000	          0.00000000	          0.00000000	          0.00000000	
          2.07400000	        -20.16214088	        526.36652305	        -38.36212882	          0.18265241	          0.00000000	          0.09834632	          0.00000000	          0.00000000	          0.00000000	          0.00000000	          0.00000000	          0.00000000	          0.00000000	          1.38133952	          0.00000000	          0.00000000	          0.00000000	          0.00000000	
